# xmcd CD database file
#
# Track frame offsets:
#	150
#	17771
#	35439
#	52339
#	65763
#	79142
#	89780
#	97189
#	112260
#	125357
#	134634
#	147816
#	162416
#
# Disc length: 2338 seconds
#
# Revision: 0
# Processed by: cddbd v1.5.2PL0 Copyright (c) Steve Scherf et al.
# Submitted via: jetAudio 7
#
DISCID=cb09200d
DTITLE=John Williamson - Honest People
DYEAR=1900
DGENRE=Country
TTITLE0=Heatwave
TTITLE1=Keep Walking
TTITLE2=Song For Luke And Mel
TTITLE3=What You Wish For
TTITLE4=Will She Marry Me
TTITLE5=Call Me Blue
TTITLE6=Interval
TTITLE7=It's All About Love
TTITLE8=Grandpa's Cricket
TTITLE9=Kings And Queens
TTITLE10=Girt By Sea
TTITLE11=Honest People
TTITLE12=Clouds Over Tamworth
EXTD=
EXTT0=
EXTT1=
EXTT2=
EXTT3=
EXTT4=
EXTT5=
EXTT6=
EXTT7=
EXTT8=
EXTT9=
EXTT10=
EXTT11=
EXTT12=
PLAYORDER=
